<?xml version="1.0" encoding="utf-8"?>
<!-- Generator: Adobe Illustrator 22.0.0, SVG Export Plug-In . SVG Version: 6.00 Build 0)  -->
<svg version="1.1" id="Layer_1" xmlns="http://www.w3.org/2000/svg" xmlns:xlink="http://www.w3.org/1999/xlink" x="0px" y="0px"
	 viewBox="0 0 500 500" style="enable-background:new 0 0 500 500;" xml:space="preserve">
<style type="text/css">
	.st0{fill:#C9C9C9;}
	.st1{fill:#A0A0A0;}
	.st2{fill:#71CCFF;}
	.st3{fill:#231F20;}
	.st4{fill:#F9F9F9;}
	.st5{fill:#7A7979;}
	.st6{fill:#4C4C4C;}
	.st7{fill:#F9B630;}
	.st8{fill:#D88A0E;}
	.st9{fill:#FFEDCC;}
	.st10{fill:#C0E7F9;}
	.st11{fill:#08B26C;}
	.st12{fill:#15A9EA;}
	.st13{fill:none;stroke:#C9C9C9;stroke-width:10;stroke-linecap:round;stroke-linejoin:round;stroke-miterlimit:10;}
	.st14{fill:none;stroke:#231F20;stroke-width:10;stroke-linecap:round;stroke-linejoin:round;stroke-miterlimit:10;}
	.st15{fill:#FFFFFF;}
	.st16{fill:#35EF9F;}
	.st17{fill:#22A6E0;}
	.st18{fill:#FC3A6D;}
	.st19{fill:#FFA9C8;}
	.st20{fill:#038E52;}
	.st21{fill:#E2074B;}
</style>
<g>
	<g>
		<path class="st11" d="M355.9,294.4c0.5-1.4,0.7-2.9,0.7-4.5c0-8.1-6.6-14.7-14.6-14.7c-8.1,0-14.6,6.6-14.6,14.7
			c0,1.6,0.2,3.1,0.7,4.5c-6.5,1.5-11.4,7.3-11.4,14.3c0,8.1,6.6,14.7,14.6,14.7c4.2,0,8.1-1.8,10.7-4.7c2.7,2.9,6.5,4.7,10.7,4.7
			c8.1,0,14.6-6.6,14.6-14.7C367.4,301.7,362.5,295.8,355.9,294.4z"/>
	</g>
</g>
<g>
	<g>
		<path class="st3" d="M352.7,328.3c-3.8,0-7.6-1.1-10.7-3.2c-3.2,2.1-6.9,3.2-10.7,3.2c-10.8,0-19.6-8.8-19.6-19.7
			c0-7.5,4.3-14.2,10.8-17.5c0-0.4,0-0.8,0-1.3c0-10.8,8.8-19.7,19.6-19.7c10.8,0,19.6,8.8,19.6,19.7c0,0.4,0,0.8,0,1.3
			c6.5,3.3,10.8,10.1,10.8,17.5C372.4,319.5,363.6,328.3,352.7,328.3z M342,313.6L342,313.6c1.4,0,2.7,0.6,3.7,1.6
			c1.8,2,4.4,3.1,7.1,3.1c5.3,0,9.6-4.3,9.6-9.7c0-4.5-3.2-8.4-7.5-9.4c-1.4-0.3-2.6-1.2-3.3-2.4c-0.7-1.2-0.9-2.7-0.4-4
			c0.3-1,0.5-2,0.5-3c0-5.3-4.3-9.7-9.6-9.7c-5.3,0-9.6,4.3-9.6,9.7c0,1,0.2,2,0.5,3c0.4,1.3,0.3,2.8-0.4,4
			c-0.7,1.2-1.9,2.1-3.3,2.4c-4.4,1-7.5,4.9-7.5,9.4c0,5.3,4.3,9.7,9.6,9.7c2.7,0,5.2-1.1,7.1-3.1
			C339.3,314.2,340.6,313.6,342,313.6z"/>
	</g>
</g>
<g>
	<g>
		<path class="st3" d="M342,366.4c-2.8,0-5-2.2-5-5v-42.8c0-2.8,2.2-5,5-5s5,2.2,5,5v42.8C347,364.2,344.8,366.4,342,366.4z"/>
	</g>
</g>
<g>
	<g>
		<path class="st11" d="M171.9,294.4c0.5-1.4,0.7-2.9,0.7-4.5c0-8.1-6.6-14.7-14.6-14.7c-8.1,0-14.6,6.6-14.6,14.7
			c0,1.6,0.2,3.1,0.7,4.5c-6.5,1.5-11.4,7.3-11.4,14.3c0,8.1,6.6,14.7,14.6,14.7c4.2,0,8.1-1.8,10.7-4.7c2.7,2.9,6.5,4.7,10.7,4.7
			c8.1,0,14.6-6.6,14.6-14.7C183.4,301.7,178.5,295.8,171.9,294.4z"/>
	</g>
</g>
<g>
	<g>
		<path class="st3" d="M168.7,328.3c-3.8,0-7.6-1.1-10.7-3.2c-3.2,2.1-6.9,3.2-10.7,3.2c-10.8,0-19.6-8.8-19.6-19.7
			c0-7.5,4.3-14.2,10.8-17.5c0-0.4,0-0.8,0-1.3c0-10.8,8.8-19.7,19.6-19.7c10.8,0,19.6,8.8,19.6,19.7c0,0.4,0,0.8,0,1.3
			c6.5,3.3,10.8,10.1,10.8,17.5C188.4,319.5,179.6,328.3,168.7,328.3z M158,313.6c1.4,0,2.7,0.6,3.7,1.6c1.8,2,4.4,3.1,7.1,3.1
			c5.3,0,9.6-4.3,9.6-9.7c0-4.5-3.2-8.4-7.5-9.4c-1.4-0.3-2.6-1.2-3.3-2.4c-0.7-1.2-0.9-2.7-0.4-4c0.3-1,0.5-2,0.5-3
			c0-5.3-4.3-9.7-9.6-9.7c-5.3,0-9.6,4.3-9.6,9.7c0,1,0.2,2,0.5,3c0.4,1.3,0.3,2.8-0.4,4c-0.7,1.2-1.9,2.1-3.3,2.4
			c-4.4,1-7.5,4.9-7.5,9.4c0,5.3,4.3,9.7,9.6,9.7c2.7,0,5.2-1.1,7.1-3.1C155.3,314.2,156.6,313.6,158,313.6z"/>
	</g>
</g>
<g>
	<g>
		<path class="st3" d="M158,366.4c-2.8,0-5-2.2-5-5v-42.8c0-2.8,2.2-5,5-5s5,2.2,5,5v42.8C163,364.2,160.8,366.4,158,366.4z"/>
	</g>
</g>
<g>
	<g>
		<path class="st3" d="M376,87h-30.3c-2.8,0-5-2.2-5-5s2.2-5,5-5H376c2.8,0,5,2.2,5,5S378.7,87,376,87z"/>
	</g>
</g>
<g>
	<g>
		<path class="st3" d="M329.2,87h-1.7c-2.8,0-5-2.2-5-5s2.2-5,5-5h1.7c2.8,0,5,2.2,5,5S331.9,87,329.2,87z"/>
	</g>
</g>
<g>
	<g>
		<path class="st2" d="M376,34.8c-13,0-23.6,10.6-23.6,23.6S362.9,82,376,82h95.4c13,0,23.6-10.6,23.6-23.6s-10.6-23.6-23.6-23.6
			h-0.5c0-9.5-7.7-17.1-17.1-17.1c-9.5,0-17.1,7.7-17.1,17.1c0-16.5-13.3-29.8-29.8-29.8s-29.8,13.3-29.8,29.8H376z"/>
	</g>
</g>
<g>
	<g>
		<path class="st3" d="M471.4,87H376c-15.8,0-28.6-12.8-28.6-28.6c0-14.6,10.9-26.6,25-28.4c2.3-16.9,16.9-30,34.5-30
			c13.6,0,25.4,7.9,31.1,19.3c4-4.1,9.6-6.6,15.8-6.6c10.6,0,19.4,7.5,21.6,17.4C489.3,32,500,44,500,58.4
			C500,74.2,487.2,87,471.4,87z M376,39.8c-10.3,0-18.6,8.3-18.6,18.6S365.7,77,376,77h95.4c10.3,0,18.6-8.3,18.6-18.6
			s-8.3-18.6-18.6-18.6h-0.5c-2.8,0-5-2.2-5-5c0-6.7-5.4-12.1-12.1-12.1s-12.1,5.4-12.1,12.1c0,2.8-2.2,5-5,5s-5-2.2-5-5
			c0-13.7-11.1-24.8-24.8-24.8s-24.8,11.1-24.8,24.8c0,2.8-2.2,5-5,5H376z"/>
	</g>
</g>
<g>
	<g>
		<path class="st10" d="M387.6,58.1H376c-2.8,0-5-2.2-5-5s2.2-5,5-5h11.6c1.6,0,2.9-1.3,2.9-2.9V35.1c0-8.6,6.5-15.9,14.9-16.7
			c4.6-0.4,9.2,1.1,12.6,4.2c3.4,3.1,5.4,7.5,5.4,12.2c0,2.8-2.2,5-5,5s-5-2.2-5-5c0-1.8-0.8-3.5-2.1-4.8c-1.4-1.2-3.1-1.8-5-1.6
			c-3.3,0.3-5.8,3.3-5.8,6.7v10.2C400.4,52.4,394.6,58.1,387.6,58.1z"/>
	</g>
</g>
<g>
	<g>
		<path class="st3" d="M53.5,201.5H23.3c-2.8,0-5-2.2-5-5s2.2-5,5-5h30.3c2.8,0,5,2.2,5,5S56.3,201.5,53.5,201.5z"/>
	</g>
</g>
<g>
	<g>
		<path class="st3" d="M6.7,201.5H5c-2.8,0-5-2.2-5-5s2.2-5,5-5h1.7c2.8,0,5,2.2,5,5S9.5,201.5,6.7,201.5z"/>
	</g>
</g>
<g>
	<g>
		<path class="st2" d="M53.5,149.3c-13,0-23.6,10.6-23.6,23.6s10.6,23.6,23.6,23.6H149c13,0,23.6-10.6,23.6-23.6
			S162,149.3,149,149.3h-0.5c0-9.5-7.7-17.1-17.1-17.1s-17.1,7.7-17.1,17.1c0-16.5-13.3-29.8-29.8-29.8s-29.8,13.3-29.8,29.8H53.5z"
			/>
	</g>
</g>
<g>
	<g>
		<path class="st3" d="M149,201.5H53.5c-15.8,0-28.6-12.8-28.6-28.6c0-14.6,10.9-26.6,25-28.4c2.3-16.9,16.9-30,34.5-30
			c13.6,0,25.4,7.9,31.1,19.3c4-4.1,9.6-6.6,15.8-6.6c10.6,0,19.4,7.5,21.6,17.4c13.9,1.9,24.6,13.9,24.6,28.3
			C177.6,188.6,164.8,201.5,149,201.5z M53.5,154.3c-10.3,0-18.6,8.3-18.6,18.6s8.3,18.6,18.6,18.6H149c10.3,0,18.6-8.3,18.6-18.6
			s-8.3-18.6-18.6-18.6h-0.5c-2.8,0-5-2.2-5-5c0-6.7-5.4-12.1-12.1-12.1s-12.1,5.4-12.1,12.1c0,2.8-2.2,5-5,5s-5-2.2-5-5
			c0-13.7-11.1-24.8-24.8-24.8s-24.8,11.1-24.8,24.8c0,2.8-2.2,5-5,5H53.5z"/>
	</g>
</g>
<g>
	<g>
		<path class="st10" d="M65.1,172.6H53.5c-2.8,0-5-2.2-5-5s2.2-5,5-5h11.6c1.6,0,2.9-1.3,2.9-2.9v-10.2c0-8.6,6.5-15.9,14.9-16.7
			c4.6-0.4,9.2,1.1,12.6,4.2c3.4,3.1,5.4,7.5,5.4,12.2c0,2.8-2.2,5-5,5s-5-2.2-5-5c0-1.8-0.8-3.5-2.1-4.8c-1.4-1.2-3.1-1.8-5-1.6
			c-3.3,0.3-5.8,3.3-5.8,6.7v10.2C78,166.9,72.2,172.6,65.1,172.6z"/>
	</g>
</g>
<g>
	<g>
		<path class="st5" d="M381.5,442.3c0,29.1-58.9,52.7-131.5,52.7s-131.5-23.6-131.5-52.7v-43.2h262.9V442.3z"/>
	</g>
</g>
<g>
	<g>
		<path class="st3" d="M250,500c-35.7,0-69.4-5.6-94.8-15.8c-26.9-10.8-41.6-25.7-41.6-41.9v-43.2c0-2.8,2.2-5,5-5h262.9
			c2.8,0,5,2.2,5,5v43.2c0,16.3-14.8,31.1-41.6,41.9C319.4,494.4,285.7,500,250,500z M123.5,404.1v38.2c0,23,50.8,47.7,126.5,47.7
			c75.7,0,126.5-24.7,126.5-47.7v-38.2H123.5z"/>
	</g>
</g>
<g>
	<g>
		<ellipse class="st0" cx="250" cy="399.1" rx="131.5" ry="52.7"/>
	</g>
</g>
<g>
	<g>
		<path class="st4" d="M189,377.9c-2.3,0-4.3-1.6-4.9-3.9c-0.6-2.7,1.1-5.4,3.8-6c0.8-0.2,1.7-0.4,2.5-0.6c2.7-0.6,5.4,1.1,5.9,3.8
			c0.6,2.7-1.1,5.4-3.8,5.9c-0.8,0.2-1.6,0.4-2.4,0.5C189.8,377.8,189.4,377.9,189,377.9z"/>
	</g>
</g>
<g>
	<g>
		<path class="st4" d="M138.5,404.1c-2.8,0-5-2.2-5-5c0-5.8,9-15.3,29.1-23.4c2.8-1.1,5.7-2.2,8.8-3.2c2.6-0.9,5.4,0.6,6.3,3.2
			s-0.6,5.4-3.2,6.3c-2.8,0.9-5.6,1.9-8.2,3c-16.3,6.5-22,13-22.9,14.7C143.2,402.2,141.1,404.1,138.5,404.1z M143.4,399.9
			L143.4,399.9L143.4,399.9z M143.5,399.1C143.5,399.1,143.5,399.1,143.5,399.1C143.5,399.1,143.5,399.1,143.5,399.1z"/>
	</g>
</g>
<g>
	<g>
		<path class="st3" d="M250,456.8c-35.7,0-69.4-5.6-94.8-15.8c-26.9-10.8-41.6-25.7-41.6-41.9s14.8-31.1,41.6-41.9
			c25.4-10.2,59.1-15.8,94.8-15.8s69.4,5.6,94.8,15.8c26.9,10.8,41.6,25.7,41.6,41.9s-14.8,31.1-41.6,41.9
			C319.4,451.2,285.7,456.8,250,456.8z M250,351.4c-75.7,0-126.5,24.7-126.5,47.7s50.8,47.7,126.5,47.7
			c75.7,0,126.5-24.7,126.5-47.7S325.7,351.4,250,351.4z"/>
	</g>
</g>
<g>
	<g>
		<path class="st7" d="M304.4,206c0-17.9-13.8-32.6-31.4-33.9c11-7.4,18.3-20,18.3-34.3v-6.2c0-22.8-18.5-41.3-41.3-41.3h0
			c-22.8,0-41.3,18.5-41.3,41.3v6.2c0,14.3,7.3,26.9,18.3,34.3c-17.6,1.3-31.4,16-31.4,33.9v71.2c0,6.2,5.1,11.3,11.3,11.3h11.2V392
			c0,4.6,3.8,8.4,8.4,8.4h47.1c4.6,0,8.4-3.8,8.4-8.4V288.5h11.2c6.2,0,11.3-5.1,11.3-11.3V206z"/>
	</g>
</g>
<g>
	<g>
		<path class="st3" d="M273.6,405.3h-47.1c-7.4,0-13.4-6-13.4-13.4v-98.5h-6.2c-9,0-16.3-7.3-16.3-16.3V206
			c0-16.6,10.6-31.1,25.5-36.6c-7.9-8.5-12.5-19.8-12.5-31.6v-6.2c0-25.6,20.8-46.3,46.3-46.3c25.6,0,46.3,20.8,46.3,46.3v6.2
			c0,11.9-4.5,23.1-12.5,31.6c14.9,5.5,25.5,20,25.5,36.6v71.2c0,9-7.3,16.3-16.3,16.3h-6.2V392
			C286.9,399.3,280.9,405.3,273.6,405.3z M250,95.2c-20,0-36.3,16.3-36.3,36.3v6.2c0,12.1,6,23.4,16.1,30.2c1.8,1.2,2.6,3.4,2,5.4
			c-0.5,2.1-2.3,3.5-4.5,3.7c-15,1.1-26.8,13.8-26.8,28.9v71.2c0,3.5,2.8,6.3,6.3,6.3H218c2.8,0,5,2.2,5,5V392
			c0,1.9,1.5,3.4,3.4,3.4h47.1c1.9,0,3.4-1.5,3.4-3.4V288.5c0-2.8,2.2-5,5-5h11.2c3.5,0,6.3-2.8,6.3-6.3V206
			c0-15.1-11.8-27.8-26.8-28.9c-2.1-0.2-3.9-1.7-4.5-3.7c-0.5-2.1,0.3-4.2,2-5.4c10.1-6.8,16.1-18.1,16.1-30.2v-6.2
			C286.3,111.5,270,95.2,250,95.2z"/>
	</g>
</g>
<g>
	<g>
		<path class="st9" d="M238.1,160.5c-1,0-1.9-0.3-2.8-0.9c-7.3-4.9-11.7-13.1-11.7-21.9v-6.2c0-6,2.1-11.9,5.8-16.5
			c1.7-2.1,4.9-2.5,7-0.7c2.1,1.7,2.5,4.9,0.7,7c-2.4,2.9-3.6,6.5-3.6,10.3v6.2c0,5.5,2.7,10.5,7.3,13.6c2.3,1.5,2.9,4.6,1.4,6.9
			C241.3,159.7,239.7,160.5,238.1,160.5z M246.9,115.4c-2.4,0-4.6-1.8-4.9-4.3c-0.4-2.7,1.5-5.3,4.2-5.7c1.2-0.2,2.5-0.3,3.8-0.3
			c2.8,0,5,2.2,5,5s-2.2,5-5,5c-0.8,0-1.6,0.1-2.3,0.2C247.4,115.4,247.2,115.4,246.9,115.4z"/>
	</g>
</g>
<g>
	<g>
		<path class="st3" d="M218,293.5c-2.8,0-5-2.2-5-5v-64.7c0-2.8,2.2-5,5-5s5,2.2,5,5v64.7C223,291.3,220.8,293.5,218,293.5z"/>
	</g>
</g>
<g>
	<g>
		<path class="st3" d="M218,209.8c-2.8,0-5-2.2-5-5v-4.4c0-2.8,2.2-5,5-5s5,2.2,5,5v4.4C223,207.6,220.8,209.8,218,209.8z"/>
	</g>
</g>
<g>
	<g>
		<path class="st3" d="M281.9,293.5c-2.8,0-5-2.2-5-5v-64.7c0-2.8,2.2-5,5-5s5,2.2,5,5v64.7C286.9,291.3,284.7,293.5,281.9,293.5z"
			/>
	</g>
</g>
<g>
	<g>
		<path class="st3" d="M281.9,209.8c-2.8,0-5-2.2-5-5v-4.4c0-2.8,2.2-5,5-5s5,2.2,5,5v4.4C286.9,207.6,284.7,209.8,281.9,209.8z"/>
	</g>
</g>
<g>
	<g>
		<path class="st3" d="M250,404.5c-2.8,0-5-2.2-5-5v-99.7c0-2.8,2.2-5,5-5s5,2.2,5,5v99.7C255,402.2,252.8,404.5,250,404.5z"/>
	</g>
</g>
</svg>
